<svg xmlns="http://www.w3.org/2000/svg" width="1000" height="760" viewBox="0 0 1000 760" fill="none">
  <defs>
    <linearGradient id="bg" x1="0" y1="0" x2="1000" y2="760" gradientUnits="userSpaceOnUse">
      <stop stop-color="#f4dcf0"/>
      <stop offset="1" stop-color="#efd5ea"/>
    </linearGradient>
    <filter id="shadow" x="-20%" y="-20%" width="140%" height="140%">
      <feDropShadow dx="0" dy="8" stdDeviation="10" flood-color="#7f5ea7" flood-opacity="0.18"/>
    </filter>
  </defs>

  <rect width="1000" height="760" rx="36" fill="url(#bg)"/>

  <g filter="url(#shadow)">
    <ellipse cx="220" cy="160" rx="170" ry="95" fill="#c6e68f" stroke="#fff" stroke-width="14"/>
    <ellipse cx="220" cy="160" rx="176" ry="101" stroke="#8fbf55" stroke-width="4"/>
    <text x="220" y="146" text-anchor="middle" font-family="Arial, sans-serif" font-size="52" font-weight="700" fill="#4f7340">NO</text>
    <text x="220" y="198" text-anchor="middle" font-family="Arial, sans-serif" font-size="52" font-weight="700" fill="#4f7340">WAY</text>
  </g>

  <g filter="url(#shadow)">
    <path d="M365 210 C405 160, 486 155, 525 208 C568 266, 556 336, 510 379 C463 424, 388 425, 345 372 C304 320, 322 259, 365 210 Z" fill="#ece2f5" stroke="#fff" stroke-width="14"/>
    <path d="M365 210 C405 160, 486 155, 525 208 C568 266, 556 336, 510 379 C463 424, 388 425, 345 372 C304 320, 322 259, 365 210 Z" stroke="#9a86bf" stroke-width="4"/>
    <text x="438" y="254" text-anchor="middle" font-family="Arial, sans-serif" font-size="74" font-weight="800" fill="#7a5f9e">FUN</text>
    <text x="438" y="332" text-anchor="middle" font-family="Arial, sans-serif" font-size="74" font-weight="800" fill="#7a5f9e">FUN</text>
  </g>

  <g filter="url(#shadow)">
    <circle cx="760" cy="180" r="130" fill="#e9f1d8" stroke="#fff" stroke-width="14"/>
    <circle cx="760" cy="180" r="136" stroke="#8a89b8" stroke-width="4"/>
    <path d="M631 180 H889 M760 51 V309 M675 95 L845 265 M845 95 L675 265 M634 134 H886 M634 226 H886" stroke="#8a89b8" stroke-width="4"/>
  </g>

  <g filter="url(#shadow)">
    <path d="M698 262 C756 211, 843 212, 900 262" stroke="#fff" stroke-width="18" stroke-linecap="round"/>
    <path d="M698 262 C756 211, 843 212, 900 262" stroke="#9f8ec8" stroke-width="8" stroke-linecap="round"/>
    <path d="M716 265 C763 226, 835 226, 882 265" stroke="#b7dc7c" stroke-width="8" stroke-linecap="round"/>
    <path d="M734 268 C771 239, 827 239, 864 268" stroke="#b8cce8" stroke-width="8" stroke-linecap="round"/>
  </g>

  <g filter="url(#shadow)">
    <path d="M570 420 L617 396 L664 420 L650 470 L603 494 L556 470 Z" fill="#bfe67f" stroke="#fff" stroke-width="12"/>
    <path d="M570 420 L617 396 L664 420 L650 470 L603 494 L556 470 Z" stroke="#7fa04c" stroke-width="4"/>
    <text x="610" y="456" text-anchor="middle" font-family="Arial, sans-serif" font-size="50" font-weight="800" fill="#f8fff0">GO!</text>
  </g>

  <g filter="url(#shadow)">
    <rect x="620" y="500" width="250" height="132" rx="36" fill="#eae3f6" stroke="#fff" stroke-width="12"/>
    <rect x="620" y="500" width="250" height="132" rx="36" stroke="#9786bd" stroke-width="4"/>
    <text x="745" y="550" text-anchor="middle" font-family="Arial, sans-serif" font-size="56" font-weight="700" fill="#6b5a8f">don't</text>
    <text x="745" y="606" text-anchor="middle" font-family="Arial, sans-serif" font-size="56" font-weight="700" fill="#6b5a8f">forget</text>
  </g>

  <g fill="#f7e885" stroke="#fff" stroke-width="12" filter="url(#shadow)">
    <path d="M118 420 L144 478 L206 484 L158 524 L172 586 L118 556 L64 586 L78 524 L30 484 L92 478 Z"/>
    <path d="M898 532 L918 574 L962 580 L928 608 L938 650 L898 628 L858 650 L868 608 L834 580 L878 574 Z"/>
  </g>

  <g fill="#d8eff9" stroke="#fff" stroke-width="10" filter="url(#shadow)">
    <path d="M458 558 C480 528, 514 528, 536 558 C562 560, 574 590, 550 610 C544 638, 508 646, 488 626 C458 628, 438 602, 450 578 C438 568, 444 552, 458 558 Z"/>
  </g>
</svg>
