<svg xmlns="http://www.w3.org/2000/svg" width="900" height="1100" viewBox="0 0 900 1100" fill="none">
  <defs>
    <linearGradient id="coatBase" x1="180" y1="130" x2="740" y2="1000" gradientUnits="userSpaceOnUse">
      <stop stop-color="#b38861"/>
      <stop offset="0.55" stop-color="#9b6a45"/>
      <stop offset="1" stop-color="#7b4f31"/>
    </linearGradient>
    <linearGradient id="furRim" x1="180" y1="120" x2="730" y2="480" gradientUnits="userSpaceOnUse">
      <stop stop-color="#f5e8d7"/>
      <stop offset="0.45" stop-color="#dfc2a3"/>
      <stop offset="1" stop-color="#bc9066"/>
    </linearGradient>
    <radialGradient id="shine" cx="0" cy="0" r="1" gradientUnits="userSpaceOnUse" gradientTransform="translate(310 420) rotate(35) scale(420 290)">
      <stop stop-color="white" stop-opacity="0.38"/>
      <stop offset="1" stop-color="white" stop-opacity="0"/>
    </radialGradient>
    <filter id="shadowSoft" x="90" y="80" width="720" height="980" filterUnits="userSpaceOnUse">
      <feGaussianBlur stdDeviation="24"/>
    </filter>
  </defs>

  <g filter="url(#shadowSoft)" opacity="0.18">
    <path d="M233 204 C278 170, 353 152, 450 152 C547 152, 620 170, 667 204 L730 320 V916 C730 966, 688 1004, 638 1004 H262 C212 1004, 170 966, 170 916 V320 L233 204 Z" fill="#3f2717"/>
  </g>

  <path d="M233 204 C278 170, 353 152, 450 152 C547 152, 620 170, 667 204 L730 320 V916 C730 966, 688 1004, 638 1004 H262 C212 1004, 170 966, 170 916 V320 L233 204 Z" fill="url(#coatBase)"/>

  <path d="M256 262 C304 228, 370 212, 450 212 C531 212, 596 228, 644 262 L686 340 L614 412 C573 372, 521 352, 450 352 C379 352, 327 372, 286 412 L214 340 L256 262 Z" fill="url(#furRim)"/>

  <path d="M286 412 C320 376, 374 354, 450 354 C526 354, 580 376, 614 412 L575 520 C546 494, 504 476, 450 476 C396 476, 354 494, 325 520 L286 412 Z" fill="#5a3926" opacity="0.72"/>

  <path d="M450 362 L514 954 H386 L450 362 Z" fill="#6f472d" opacity="0.55"/>
  <path d="M446 362 L474 954 H426 L446 362 Z" fill="#c39467" opacity="0.42"/>

  <path d="M278 474 C250 590, 226 726, 210 894 C202 978, 258 1026, 334 1026 H566 C642 1026, 698 978, 690 894 C674 726, 650 590, 622 474 C595 498, 552 520, 450 520 C348 520, 305 498, 278 474 Z" fill="#8f5d3a"/>

  <path d="M312 560 C334 652, 352 754, 364 862 C366 878, 380 890, 396 890 H504 C520 890, 534 878, 536 862 C548 754, 566 652, 588 560 C556 584, 512 602, 450 602 C388 602, 344 584, 312 560 Z" fill="#7c4f32"/>

  <path d="M250 212 C216 260, 194 312, 178 382 C164 450, 222 498, 286 474 L330 462 C347 457, 360 444, 364 427 C376 377, 392 333, 414 298 C423 284, 420 265, 406 256 C360 226, 306 206, 250 212 Z" fill="#b78660"/>
  <path d="M650 212 C684 260, 706 312, 722 382 C736 450, 678 498, 614 474 L570 462 C553 457, 540 444, 536 427 C524 377, 508 333, 486 298 C477 284, 480 265, 494 256 C540 226, 594 206, 650 212 Z" fill="#b78660"/>

  <ellipse cx="388" cy="640" rx="14" ry="14" fill="#f0dfc9"/>
  <ellipse cx="512" cy="640" rx="14" ry="14" fill="#f0dfc9"/>
  <ellipse cx="400" cy="748" rx="12" ry="12" fill="#e9d0af"/>
  <ellipse cx="500" cy="748" rx="12" ry="12" fill="#e9d0af"/>
  <ellipse cx="450" cy="840" rx="11" ry="11" fill="#dfbe95"/>

  <path d="M170 320 L286 412 L278 474 L170 392 V320 Z" fill="#a16d47"/>
  <path d="M730 320 L614 412 L622 474 L730 392 V320 Z" fill="#a16d47"/>

  <ellipse cx="450" cy="560" rx="270" ry="240" fill="url(#shine)"/>
</svg>
