<svg xmlns="http://www.w3.org/2000/svg" width="1200" height="800" viewBox="0 0 1200 800" fill="none">
  <defs>
    <linearGradient id="bg" x1="0" y1="0" x2="1200" y2="800" gradientUnits="userSpaceOnUse">
      <stop stop-color="#f7efe5"/>
      <stop offset="1" stop-color="#e7d7c3"/>
    </linearGradient>
    <linearGradient id="strandA" x1="0" y1="0" x2="0" y2="1">
      <stop stop-color="#fdf8f2" stop-opacity="0.9"/>
      <stop offset="1" stop-color="#c69b72" stop-opacity="0.25"/>
    </linearGradient>
    <linearGradient id="strandB" x1="0" y1="0" x2="0" y2="1">
      <stop stop-color="#fffdf8" stop-opacity="0.8"/>
      <stop offset="1" stop-color="#b17d4f" stop-opacity="0.18"/>
    </linearGradient>
    <filter id="blurSoft" x="-20%" y="-20%" width="140%" height="140%">
      <feGaussianBlur stdDeviation="1.6"/>
    </filter>
  </defs>

  <rect width="1200" height="800" fill="url(#bg)"/>

  <g opacity="0.72" filter="url(#blurSoft)">
    <path d="M40 60 C45 140, 50 220, 56 300 C62 390, 70 490, 78 590 C86 680, 90 730, 92 770" stroke="url(#strandA)" stroke-width="7" stroke-linecap="round"/>
    <path d="M95 40 C102 130, 108 220, 115 305 C121 385, 129 486, 137 580 C146 674, 150 730, 154 770" stroke="url(#strandB)" stroke-width="6" stroke-linecap="round"/>
    <path d="M156 70 C162 150, 166 240, 172 332 C178 425, 186 510, 194 600 C201 681, 208 735, 214 770" stroke="url(#strandA)" stroke-width="7" stroke-linecap="round"/>
    <path d="M220 55 C228 150, 233 240, 240 335 C246 418, 253 510, 263 604 C272 689, 281 735, 290 770" stroke="url(#strandB)" stroke-width="6" stroke-linecap="round"/>
    <path d="M292 42 C300 128, 307 220, 314 300 C322 392, 331 488, 340 584 C348 672, 354 732, 360 770" stroke="url(#strandA)" stroke-width="7" stroke-linecap="round"/>
    <path d="M368 65 C374 150, 382 246, 390 340 C398 432, 404 522, 415 611 C425 691, 435 738, 443 770" stroke="url(#strandB)" stroke-width="6" stroke-linecap="round"/>
    <path d="M446 40 C455 132, 462 228, 468 324 C476 420, 486 520, 496 612 C504 694, 516 740, 525 770" stroke="url(#strandA)" stroke-width="7" stroke-linecap="round"/>
    <path d="M526 72 C532 158, 541 248, 551 338 C560 432, 568 526, 579 617 C590 703, 601 742, 612 770" stroke="url(#strandB)" stroke-width="6" stroke-linecap="round"/>
    <path d="M608 54 C616 144, 623 239, 631 333 C639 430, 651 520, 662 611 C672 693, 684 738, 696 770" stroke="url(#strandA)" stroke-width="7" stroke-linecap="round"/>
    <path d="M696 36 C704 126, 713 222, 723 317 C733 416, 742 513, 754 608 C765 692, 777 739, 790 770" stroke="url(#strandB)" stroke-width="6" stroke-linecap="round"/>
    <path d="M782 60 C791 150, 801 248, 812 341 C822 441, 834 529, 845 617 C855 697, 868 742, 882 770" stroke="url(#strandA)" stroke-width="7" stroke-linecap="round"/>
    <path d="M870 42 C879 132, 890 225, 902 316 C913 410, 924 507, 938 604 C949 690, 964 738, 980 770" stroke="url(#strandB)" stroke-width="6" stroke-linecap="round"/>
    <path d="M962 70 C973 160, 984 254, 996 346 C1008 441, 1020 529, 1033 614 C1047 700, 1061 744, 1078 770" stroke="url(#strandA)" stroke-width="7" stroke-linecap="round"/>
    <path d="M1048 46 C1060 138, 1072 228, 1086 324 C1098 420, 1112 512, 1128 607 C1140 692, 1155 739, 1172 770" stroke="url(#strandB)" stroke-width="6" stroke-linecap="round"/>
  </g>
</svg>
